<svg width="54" height="54" viewBox="0 0 54 54" fill="none" xmlns="http://www.w3.org/2000/svg">
<path fill-rule="evenodd" clip-rule="evenodd" d="M13.5 16.875C12.3942 16.875 11.4633 17.2504 10.8061 17.9076C10.1594 18.5543 9.84375 19.4092 9.84375 20.25C9.84375 21.0908 10.1594 21.9457 10.8061 22.5924C11.4633 23.2496 12.3942 23.625 13.5 23.625L18.0012 23.625C18.6265 23.625 19.125 24.1254 19.125 24.7427V46.125C19.125 47.2308 19.5004 48.1617 20.1576 48.8189C20.8043 49.4656 21.6592 49.7812 22.5 49.7812C23.3408 49.7813 24.1957 49.4656 24.8424 48.8189C25.4996 48.1617 25.875 47.2308 25.875 46.125C25.875 44.4218 25.8768 41.9676 26.1464 39.9456C26.2826 38.9239 26.476 38.1089 26.7207 37.5789C26.8489 37.3011 26.947 37.1862 27 37.1414C27.053 37.1862 27.1511 37.3011 27.2793 37.5789C27.524 38.1089 27.7174 38.9239 27.8536 39.9456C28.1232 41.9676 28.125 44.4218 28.125 46.125C28.125 47.2308 28.5004 48.1617 29.1576 48.8189C29.8043 49.4656 30.6592 49.7812 31.5 49.7812C32.3408 49.7812 33.1957 49.4656 33.8424 48.8189C34.4996 48.1617 34.875 47.2308 34.875 46.125V24.75C34.875 24.1287 35.3787 23.625 36 23.625H40.5C41.6058 23.625 42.5367 23.2496 43.1939 22.5924C43.8406 21.9457 44.1562 21.0908 44.1562 20.25C44.1562 19.4092 43.8406 18.5543 43.1939 17.9076C42.5367 17.2504 41.6058 16.875 40.5 16.875H13.5ZM27.0441 37.1156C27.0441 37.1156 27.0382 37.1206 27.025 37.123C27.0373 37.1155 27.0441 37.1156 27.0441 37.1156ZM26.975 37.123C26.9618 37.1206 26.9559 37.1156 26.9559 37.1156C26.9559 37.1156 26.9627 37.1155 26.975 37.123Z" fill="white"/>
<path d="M27 4.5C23.8934 4.5 21.375 7.0184 21.375 10.125C21.375 13.2316 23.8934 15.75 27 15.75C30.1066 15.75 32.625 13.2316 32.625 10.125C32.625 7.0184 30.1066 4.5 27 4.5Z" fill="white"/>
</svg>
