<svg width="35" height="39" viewBox="0 0 35 39" fill="none" xmlns="http://www.w3.org/2000/svg">
<path d="M1.30765 3.33573C1.70457 1.71894 3.08495 0.741854 4.53613 0.741854C5.4311 0.741854 6.24517 1.10084 6.86457 1.68655C7.54749 1.07496 8.41037 0.739746 9.30173 0.739746C10.1931 0.739746 11.056 1.07496 11.7389 1.68655C12.3797 1.0765 13.2088 0.740144 14.0673 0.741854C15.5185 0.741854 16.8989 1.71894 17.2958 3.33573C17.675 4.87963 18.1503 7.36824 18.1503 10.1888C18.1503 11.7639 17.7813 13.314 17.0771 14.6981C16.3728 16.0821 15.3556 17.2562 14.1179 18.1135C13.4328 18.5912 13.094 19.2067 13.094 19.733V20.8018C13.094 20.863 13.0974 20.9224 13.1041 20.98C13.1901 21.6494 13.501 24.1353 13.7918 26.713C14.0775 29.242 14.3581 32.0006 14.3581 33.1315C14.3581 34.5632 13.8254 35.9363 12.8771 36.9487C11.9289 37.961 10.6428 38.5298 9.30173 38.5298C7.96071 38.5298 6.6746 37.961 5.72635 36.9487C4.77811 35.9363 4.24539 34.5632 4.24539 33.1315C4.24539 31.9979 4.52601 29.2447 4.8117 26.713C5.10244 24.1353 5.4134 21.6494 5.49936 20.98L5.50947 20.8018V19.733C5.50947 19.2067 5.1707 18.5912 4.48556 18.1135C3.24791 17.2562 2.23067 16.0821 1.5264 14.6981C0.822137 13.314 0.453188 11.7639 0.453125 10.1888C0.453125 7.36824 0.928422 4.87963 1.30765 3.33573ZM13.094 11.5384C13.094 11.8963 12.9608 12.2396 12.7237 12.4927C12.4867 12.7458 12.1652 12.888 11.8299 12.888C11.4946 12.888 11.1731 12.7458 10.9361 12.4927C10.699 12.2396 10.5658 11.8963 10.5658 11.5384V4.79056C10.5658 4.43263 10.4326 4.08936 10.1956 3.83627C9.95851 3.58318 9.63699 3.44099 9.30173 3.44099C8.96648 3.44099 8.64495 3.58318 8.40789 3.83627C8.17083 4.08936 8.03765 4.43263 8.03765 4.79056V11.5384C8.03765 11.8963 7.90446 12.2396 7.6674 12.4927C7.43034 12.7458 7.10882 12.888 6.77356 12.888C6.4383 12.888 6.11678 12.7458 5.87971 12.4927C5.64265 12.2396 5.50947 11.8963 5.50947 11.5384V4.48016C5.50947 4.20456 5.40692 3.94024 5.22439 3.74536C5.04185 3.55048 4.79427 3.44099 4.53613 3.44099C4.11645 3.44099 3.82824 3.70821 3.75239 4.02131C3.25417 6.0345 2.9951 8.10661 2.9813 10.1888C2.98118 11.3145 3.24482 12.4223 3.7482 13.4113C4.25159 14.4004 4.97873 15.2393 5.86342 15.8516C6.97328 16.6209 8.03765 17.9731 8.03765 19.733V20.8018C8.03765 20.9818 8.02669 21.1617 8.00478 21.3417C7.91882 22.0057 7.61038 24.4754 7.32217 27.0368C7.0289 29.6415 6.77356 32.203 6.77356 33.1315C6.77356 33.8474 7.03992 34.5339 7.51404 35.0401C7.98817 35.5463 8.63122 35.8306 9.30173 35.8306C9.97225 35.8306 10.6153 35.5463 11.0894 35.0401C11.5635 34.5339 11.8299 33.8474 11.8299 33.1315C11.8299 32.203 11.5771 29.6415 11.2813 27.0342C10.9931 24.4754 10.6846 22.0057 10.5987 21.339C10.5795 21.1615 10.5685 20.9832 10.5658 20.8045V19.7357C10.5658 17.9758 11.6302 16.6236 12.74 15.8543C13.6251 15.2417 14.3525 14.4024 14.8559 13.4128C15.3593 12.4233 15.6227 11.3149 15.6222 10.1888C15.6222 7.67324 15.1974 5.42756 14.8511 4.02131C14.7752 3.71091 14.4845 3.44099 14.0673 3.44099C13.8092 3.44099 13.5616 3.55048 13.3791 3.74536C13.1965 3.94024 13.094 4.20456 13.094 4.48016V11.5384ZM20.6785 12.888C20.6785 9.66662 21.8771 6.57721 24.0107 4.29937C26.1443 2.02153 29.038 0.741854 32.0553 0.741854C32.3906 0.741854 32.7121 0.884041 32.9491 1.13713C33.1862 1.39023 33.3194 1.7335 33.3194 2.09142V18.2134L33.3674 18.6911C33.5685 20.7056 33.7615 22.721 33.9464 24.7372C34.2573 28.1273 34.5835 31.9277 34.5835 33.1315C34.5835 34.5632 34.0507 35.9363 33.1025 36.9487C32.1542 37.961 30.8681 38.5298 29.5271 38.5298C28.1861 38.5298 26.9 37.961 25.9517 36.9487C25.0035 35.9363 24.4708 34.5632 24.4708 33.1315C24.4708 31.9277 24.7969 28.1273 25.1079 24.7372C25.2671 23.0178 25.4264 21.3714 25.5452 20.1514L25.5958 19.6358H23.2067C22.5362 19.6358 21.8931 19.3514 21.419 18.8453C20.9449 18.3391 20.6785 17.6525 20.6785 16.9367V12.888ZM28.2554 18.4293L28.2024 18.9745C28.0047 20.983 27.8126 22.9921 27.6259 25.0017C27.3049 28.4755 26.9989 32.1004 26.9989 33.1315C26.9989 33.8474 27.2653 34.5339 27.7394 35.0401C28.2136 35.5463 28.8566 35.8306 29.5271 35.8306C30.1976 35.8306 30.8407 35.5463 31.3148 35.0401C31.7889 34.5339 32.0553 33.8474 32.0553 33.1315C32.0553 32.0977 31.7494 28.4755 31.4283 25.0017C31.2429 22.9919 31.0507 20.9828 30.8519 18.9745L30.7988 18.432L30.7912 18.2862V3.53546C28.6849 3.86005 26.7586 4.98423 25.3656 6.70196C23.9726 8.41969 23.2061 10.6159 23.2067 12.888V16.9367H26.9989C27.1762 16.9367 27.3515 16.9766 27.5134 17.0537C27.6753 17.1308 27.8202 17.2434 27.9387 17.3841C28.0572 17.5249 28.1466 17.6907 28.2012 17.8708C28.2557 18.0508 28.2742 18.2411 28.2554 18.4293Z" fill="#0E45B7" fill-opacity="0.947208"/>
</svg>
