<svg width="30" height="39" viewBox="0 0 30 39" fill="none" xmlns="http://www.w3.org/2000/svg">
<path d="M2.72727 5.45455C2.72727 4.73123 3.01461 4.03754 3.52607 3.52607C4.03754 3.01461 4.73123 2.72727 5.45455 2.72727H24.5455C25.2688 2.72727 25.9625 3.01461 26.4739 3.52607C26.9854 4.03754 27.2727 4.73123 27.2727 5.45455V30H2.72727V5.45455ZM5.45455 35.4545C4.73123 35.4545 4.03754 35.1672 3.52607 34.6557C3.01461 34.1443 2.72727 33.4506 2.72727 32.7273H27.6136C28.2465 32.7273 28.8535 32.4759 29.3011 32.0283C29.7486 31.5808 30 30.9738 30 30.3409V5.45455C30 4.00791 29.4253 2.62053 28.4024 1.5976C27.3795 0.574674 25.9921 0 24.5455 0H5.45455C4.00791 0 2.62052 0.574674 1.5976 1.5976C0.574674 2.62053 0 4.00791 0 5.45455V32.7273C0 34.1739 0.574674 35.5613 1.5976 36.5842C2.62052 37.6071 4.00791 38.1818 5.45455 38.1818H28.6364C28.998 38.1818 29.3449 38.0382 29.6006 37.7824C29.8563 37.5267 30 37.1798 30 36.8182C30 36.4565 29.8563 36.1097 29.6006 35.8539C29.3449 35.5982 28.998 35.4545 28.6364 35.4545H5.45455ZM7.84091 5.45455C7.20801 5.45455 6.60102 5.70597 6.15349 6.1535C5.70596 6.60103 5.45455 7.20801 5.45455 7.84091V11.25C5.45455 12.5673 6.52364 13.6364 7.84091 13.6364H22.1591C22.792 13.6364 23.399 13.3849 23.8465 12.9374C24.294 12.4899 24.5455 11.8829 24.5455 11.25V7.84091C24.5455 7.20801 24.294 6.60103 23.8465 6.1535C23.399 5.70597 22.792 5.45455 22.1591 5.45455H7.84091ZM8.18182 10.9091V8.18182H21.8182V10.9091H8.18182Z" fill="#DC340F"/>
</svg>
